<svg width="57" height="57" viewBox="0 0 57 57" fill="none" xmlns="http://www.w3.org/2000/svg">
<g clip-path="url(#clip0_1_6)">
<path d="M56.0841 28.183H52.2327C51.883 28.183 51.2999 28.1621 51.2999 27.8126V23.9251C51.2999 23.5755 51.3163 23.1164 50.9666 23.1164H47.0976C46.7473 23.1164 46.233 23.008 46.233 22.6585V18.7919C46.233 18.4417 46.1811 18.0497 45.8314 18.0497H41.9734C41.6237 18.0497 41.1665 17.8736 41.1665 17.524V13.6385C41.1665 13.289 40.9701 13.0084 40.6206 13.0115C39.3569 13.0217 38.0625 13.0229 36.7508 13.0229C36.4013 13.0229 36.1003 13.3067 36.1003 13.6562V17.5076C36.0997 17.8584 35.9388 18.0497 35.5886 18.0497H21.3799C21.0304 18.0497 20.8999 17.8584 20.8999 17.5088V13.6538C20.8999 13.3042 20.5401 13.0204 20.1906 13.0204C18.8916 13.0204 17.6724 13.0192 16.4216 13.009C16.0707 13.0066 15.8332 13.2871 15.8332 13.6367V17.5583C15.8332 17.9086 15.3828 18.0498 15.0326 18.0498H11.1427C10.7931 18.0498 10.7665 18.4747 10.7665 18.8243V22.6959C10.7665 23.0461 10.2256 23.1165 9.87605 23.1165H5.99947C5.6499 23.1165 5.06655 23.6124 5.06655 23.9626V27.8392C5.06655 28.1887 5.08238 28.183 4.73281 28.183H0.915741C0.566167 28.183 -0.000106812 28.7555 -0.000106812 29.1051V43.1511C-0.000106812 43.5014 0.566063 44.0162 0.915741 44.0162H4.73095C5.08052 44.0162 5.06665 43.5 5.06665 43.1505V34.211C5.06665 33.8607 5.64804 33.8829 5.99771 33.8829H9.91289C10.2625 33.8829 10.7666 33.8614 10.7666 34.211V43.2075C10.7666 43.5571 10.9395 43.8402 11.2898 43.8402C12.5893 43.8402 13.9016 43.8421 15.1531 43.8515C15.5027 43.8547 15.8333 43.5741 15.8333 43.2245V39.3619C15.8333 39.0122 15.9118 38.9496 16.262 38.9496H40.741C41.0906 38.9496 41.3742 39.1231 41.3742 39.4727C41.3742 40.7724 41.3723 42.0833 41.3623 43.3487C41.3597 43.6989 41.6396 44.0162 41.9893 44.0162H45.8463C46.1952 44.0162 46.2331 43.5539 46.2331 43.2043V34.2199C46.2331 33.8702 46.7627 33.8829 47.1128 33.8829H51.0491C51.3985 33.8829 51.9331 33.8702 51.9331 34.2199V43.1505C51.9331 43.5 51.9667 44.0162 52.3163 44.0162H56.0832C56.4329 44.0162 56.9998 43.5008 56.9998 43.1511V29.0791C57 28.729 56.4336 28.183 56.0841 28.183ZM20.9 27.7834C20.9 28.133 20.5035 28.183 20.1539 28.183H16.2849C15.9347 28.183 15.8334 28.1336 15.8334 27.7841V23.9214C15.8334 23.5718 15.9353 23.1165 16.2856 23.1165H20.1534C20.503 23.1165 20.9001 23.5718 20.9001 23.9221L20.9 27.7834ZM41.1667 27.7936C41.1667 28.1432 41.0608 28.1831 40.7114 28.1831H36.8493C36.499 28.1831 36.1 28.1432 36.1 27.7929V23.9283C36.1 23.5794 36.4996 23.1164 36.8493 23.1164H40.7114C41.0608 23.1164 41.1667 23.5786 41.1667 23.9283V27.7936Z" fill="black"/>
<path d="M25.2858 43.8853C24.3327 43.8859 23.3713 43.8872 22.4339 43.8846C20.3844 43.8783 18.323 43.8695 16.2735 43.8611C15.924 43.8599 15.637 44.1424 15.6402 44.4927C15.6503 45.7592 15.6485 47.1083 15.649 48.3756C15.649 48.7251 15.9296 49.0836 16.2792 49.0836H25.2377C25.5872 49.083 25.9666 48.6486 25.9666 48.299V44.5193C25.9666 44.169 25.6354 43.8846 25.2858 43.8853ZM40.9634 43.8713C40.8651 43.8789 40.812 43.9493 40.7119 43.9493C37.6964 43.9511 34.7288 44.0163 31.7135 44.0163H31.4265C31.2683 44.0163 31.0334 44.1684 31.0334 44.5179V48.3072C31.0334 48.6567 31.4235 49.083 31.7737 49.083H40.7238C41.0735 49.083 41.1666 48.6561 41.1666 48.3065V44.471C41.1667 44.1215 41.1287 43.8586 40.9634 43.8713ZM11.1986 12.9832H15.0335C15.383 12.9832 15.663 12.7095 15.6605 12.36C15.6503 11.0933 15.6491 9.81836 15.6485 8.55108C15.6484 8.38297 15.5816 8.22177 15.4627 8.1029C15.3438 7.98402 15.1826 7.91721 15.0145 7.91712H11.1987C10.8491 7.9165 10.7668 8.21164 10.7668 8.56184V12.3707C10.7667 12.7202 10.8489 12.9832 11.1986 12.9832ZM41.8956 13.0173C43.1622 13.0072 44.3847 13.0059 45.652 13.0053C46.0021 13.0053 46.2333 12.7209 46.2333 12.3714V8.55429C46.2333 8.20471 46.1484 7.9165 45.7989 7.9165H41.9912C41.6417 7.9165 41.1667 8.20585 41.1667 8.55553V12.3909C41.1667 12.7405 41.5459 13.0204 41.8956 13.0173Z" fill="black"/>
</g>
<defs>
<clipPath id="clip0_1_6">
<rect width="57" height="57" fill="white"/>
</clipPath>
</defs>
</svg>
